<svg fill="none" height="36" viewBox="0 0 179 36" width="179" xmlns="http://www.w3.org/2000/svg"><g fill="#fff"><path d="m59.76 23.9c-.88.9067-2.18 1.36-3.9 1.36s-3.02-.44-3.9-1.32c-.88-.8933-1.32-2.22-1.32-3.98v-8.9h2.14v8.66c0 1.24.24 2.1267.72 2.66s1.2667.8 2.36.8 1.88-.2667 2.36-.8c.4933-.5467.74-1.44.74-2.68v-8.64h2.14v8.8c0 1.7867-.4467 3.1333-1.34 4.04z"/><path d="m66.6705 25v-13.94h4.36c1.5333 0 2.7.34 3.5 1.02s1.2 1.6667 1.2 2.96c0 1.32-.4067 2.3333-1.22 3.04-.8.6933-1.96 1.04-3.48 1.04h-2.24v5.88zm2.12-7.86h2.02c.9466 0 1.64-.1667 2.08-.5.4533-.3333.68-.8533.68-1.56s-.22-1.22-.66-1.54c-.44-.3333-1.14-.5-2.1-.5h-2.02z"/><path d="m80.4869 25v-13.94h4.36c1.5333 0 2.7.34 3.5 1.02s1.2 1.6667 1.2 2.96c0 1.32-.4067 2.3333-1.22 3.04-.8.6933-1.96 1.04-3.48 1.04h-2.24v5.88zm2.12-7.86h2.02c.9466 0 1.64-.1667 2.08-.5.4533-.3333.68-.8533.68-1.56s-.22-1.22-.66-1.54c-.44-.3333-1.14-.5-2.1-.5h-2.02z"/><path d="m94.3033 25v-13.94h9.2197v1.98h-7.0797v3.82h6.4997v1.98h-6.4997v4.18h7.0797v1.98z"/><path d="m118.807 25h-2.5l-3.4-5.92h-.88-1.26v5.92h-2.12v-13.94h4.36c3.133 0 4.7 1.32 4.7 3.96 0 2-.893 3.2667-2.68 3.8zm-8.04-7.88h2.02c.933 0 1.627-.16 2.08-.48.453-.3333.68-.86.68-1.58s-.227-1.2333-.68-1.54c-.453-.32-1.147-.48-2.08-.48h-2.02z"/><path d="m128.729 25.26c-2.027 0-3.64-.6467-4.84-1.94-1.187-1.3067-1.78-3.0733-1.78-5.3 0-2.24.6-4.0067 1.8-5.3s2.82-1.94 4.86-1.94c1.453 0 2.693.34 3.72 1.02 1.04.68 1.813 1.6733 2.32 2.98l-1.98.76c-.653-1.8133-2.007-2.72-4.06-2.72-1.44 0-2.553.4533-3.34 1.36-.787.8933-1.18 2.1667-1.18 3.82 0 1.6667.393 2.9533 1.18 3.86s1.887 1.36 3.3 1.36c2.067 0 3.433-.9267 4.1-2.78l2.02.76c-.507 1.32-1.287 2.3267-2.34 3.02s-2.313 1.04-3.78 1.04z"/><path d="m147.438 25-1.14-3.16h-5.581l-1.159 3.16h-2.32l5.439-13.94h1.661l5.44 13.94zm-6.02-5.1h4.18l-2.08-5.72z"/><path d="m157.765 25.24c-1.36 0-2.52-.3733-3.48-1.12-.947-.7467-1.52-1.74-1.72-2.98l2.14-.52c.093.8533.413 1.52.96 2 .56.48 1.273.72 2.14.72.787 0 1.407-.1867 1.86-.56s.68-.88.68-1.52c0-.5733-.22-1.0533-.66-1.44-.427-.3867-1.193-.7933-2.3-1.22-1.44-.5467-2.453-1.12-3.04-1.72-.573-.6133-.86-1.4067-.86-2.38 0-1.1067.387-2 1.16-2.68s1.787-1.02 3.04-1.02c1.907 0 3.293.8133 4.16 2.44l-1.78 1.1c-.533-1.0933-1.347-1.64-2.44-1.64-.573 0-1.053.1733-1.44.52-.373.3333-.56.74-.56 1.22 0 .5067.207.94.62 1.3.427.3467 1.187.7267 2.28 1.14 1.493.5733 2.527 1.1733 3.1 1.8.573.6133.86 1.4133.86 2.4 0 1.2667-.433 2.28-1.3 3.04-.853.7467-1.993 1.12-3.42 1.12z"/><path d="m167.174 25v-13.94h9.22v1.98h-7.08v3.82h6.5v1.98h-6.5v4.18h7.08v1.98z"/><rect height="36" rx="4" width="36"/></g><path d="m6.38672 24h2.29492l1.14258-3.1055h5.54688l1.123 3.1055h2.2657l-5.3711-13.7988h-1.6114zm4.09178-4.9121 2.1192-5.8301 2.1093 5.8301z" fill="#292929"/><path d="m20.1602 24h2.0288l.8349-2.2485h3.9624l.8277 2.2485h2.0068l-4.1235-10.3491h-1.3916zm3.4497-3.8379 1.3989-3.7793 1.3916 3.7793z" fill="#292929"/></svg>